<svg xmlns="http://www.w3.org/2000/svg" width="134" height="100%" viewBox="0 0 134 48" class="css-a9e256"><g fill="none" fill-rule="evenodd"><g fill="#FFF" fill-rule="nonzero"><path d="M22.316 42.99c11.571 0 20.367-7.676 20.367-20.314v-3.543H21.962v8.268h11.04c-1.476 3.956-5.078 6.377-10.568 6.377-8.03 0-12.988-5.137-12.988-12.165 0-7.263 5.195-12.4 12.161-12.4 4.664 0 8.384 2.125 10.096 4.842l8.029-4.607C36.248 3.898 29.577 0 21.666 0 9.505 0 0 9.567 0 21.554c0 11.87 9.328 21.437 22.316 21.437z" transform="translate(0 4.14)"></path><g><path d="M12.897 0c.298 0 .595.009.888.026h.704v.058c7.414.79 13.148 7.026 13.148 14.656 0 5.169-3.06 9.868-7.623 12.31l-.3.157 9.151 15.784H18.302l-8.107-14.126H0v-8.598h12.897c2.702 0 4.913-2.395 4.913-5.527 0-2.946-1.955-5.24-4.436-5.503L0 9.24V.026h5.527V0h7.37zM46.675 42.683L46.675 9.087 36.849 9.087 36.849 42.683z" transform="translate(0 4.14) translate(49.132)"></path></g><path d="M112.219 42.99V29.48h6.448c8.475 0 15.047-6.572 15.047-14.74 0-8.169-6.572-14.74-15.047-14.74h-16.275v42.99h9.827zm6.448-22.723h-6.448V9.212h6.448c3.01 0 5.22 2.395 5.22 5.528 0 3.132-2.21 5.527-5.22 5.527z" transform="translate(0 4.14)"></path></g><path fill="#00B8B7" d="M90.973.08c.634.042 1.163.347 1.536.947 1.315 2.117 2.637 4.23 3.958 6.344.275.44.55.88.832 1.315.258.398.33.799.03 1.206-.269.367-.653.467-1.199.298-1.406-.435-2.813-.866-4.211-1.325-.679-.222-1.327-.234-2.01-.006-1.383.46-2.781.874-4.172 1.31-.451.142-.877.166-1.213-.244-.294-.359-.29-.758.036-1.283 1.582-2.545 3.168-5.088 4.758-7.628.369-.588.901-.914 1.655-.934"></path></g></svg>